<?xml version="1.0" standalone="no"?>
<!DOCTYPE svg PUBLIC "-//W3C//DTD SVG 20010904//EN"
 "http://www.w3.org/TR/2001/REC-SVG-20010904/DTD/svg10.dtd">
<svg version="1.0" xmlns="http://www.w3.org/2000/svg"
 width="1000.000000pt" height="1000.000000pt" viewBox="0 0 1000.000000 1000.000000"
 preserveAspectRatio="xMidYMid meet">
<metadata>
Created by potrace 1.14, written by Peter Selinger 2001-2017
</metadata>
<g transform="translate(0.000000,1000.000000) scale(0.100000,-0.100000)"
fill="#000000" stroke="none">
<path d="M0 5000 l0 -5000 5000 0 5000 0 0 5000 0 5000 -5000 0 -5000 0 0
-5000z m1431 550 c180 -701 351 -1367 380 -1478 47 -183 66 -229 84 -210 3 3
178 667 390 1477 212 810 387 1477 391 1482 3 5 112 9 249 9 223 0 244 -1 249
-17 3 -10 177 -675 387 -1478 209 -803 383 -1463 386 -1467 11 -20 33 -4 42
30 5 20 168 654 361 1407 193 754 360 1405 372 1448 l20 77 219 0 c202 0 219
-1 219 -17 0 -10 -222 -828 -493 -1818 l-492 -1800 -227 -3 -227 -2 -14 47
c-8 27 -189 679 -403 1451 -298 1076 -392 1402 -403 1400 -10 -2 -134 -437
-415 -1450 l-401 -1448 -227 0 c-207 0 -227 1 -232 18 -10 34 -975 3568 -982
3595 l-6 27 223 -2 223 -3 327 -1275z m5147 -233 c591 -1443 618 -1507 641
-1505 22 3 73 122 641 1508 l616 1505 262 3 262 2 0 -1820 0 -1820 -205 0
-205 0 0 1380 c0 1335 -1 1380 -18 1380 -16 0 -120 -246 -577 -1357 -307 -747
-563 -1368 -568 -1381 -10 -22 -11 -22 -209 -20 l-199 3 -567 1378 c-454 1104
-570 1377 -584 1377 -17 0 -18 -62 -18 -1380 l0 -1380 -205 0 -205 0 0 1820 0
1820 261 -2 261 -3 616 -1508z"/>
</g>
</svg>
